<svg width="18" height="18" viewBox="0 0 18 18" fill="none" xmlns="http://www.w3.org/2000/svg">
<g clip-path="url(#clip0_44_2942)">
<path d="M12.5948 10.2003C12.7384 9.81659 12.8113 9.41002 12.8098 9.00031C12.8098 8.09062 12.4485 7.21819 11.8052 6.57494C11.162 5.93169 10.2895 5.57031 9.37982 5.57031C8.97517 5.57079 8.57385 5.6436 8.19482 5.78531L8.99982 6.61531C9.12219 6.59573 9.2459 6.5857 9.36982 6.58531C10.013 6.58397 10.6307 6.83718 11.0878 7.28966C11.545 7.74214 11.8045 8.35712 11.8098 9.00031C11.8094 9.12424 11.7994 9.24794 11.7798 9.37031L12.5948 10.2003Z" fill="#4F4F4F"/>
<path d="M17.1452 8.76465C15.4602 5.64965 12.5052 3.76465 9.23523 3.76465C8.34491 3.76674 7.46057 3.91019 6.61523 4.18965L7.42023 4.99965C8.01316 4.84641 8.62283 4.76747 9.23523 4.76465C12.0502 4.76465 14.6102 6.33465 16.1352 8.97965C15.5758 9.96095 14.8342 10.8264 13.9502 11.5296L14.6602 12.2396C15.6833 11.4143 16.5329 10.3947 17.1602 9.23965L17.2902 8.99965L17.1452 8.76465Z" fill="#4F4F4F"/>
<path d="M2.43494 2.88953L4.66494 5.11953C3.2554 6.02709 2.10339 7.28242 1.31994 8.76453L1.18994 8.99953L1.31994 9.23953C3.00494 12.3545 5.95994 14.2395 9.22994 14.2395C10.5063 14.2393 11.766 13.9504 12.9149 13.3945L15.4149 15.8945L16.2899 15.1445L3.28994 2.14453L2.43494 2.88953ZM7.30994 7.76453L10.6349 11.0895C10.2593 11.3221 9.82676 11.4466 9.38494 11.4495C9.06391 11.4495 8.74604 11.3861 8.44963 11.2628C8.15322 11.1394 7.88412 10.9587 7.65781 10.731C7.4315 10.5033 7.25246 10.2331 7.13097 9.93597C7.00949 9.63881 6.94796 9.32056 6.94994 8.99953C6.95557 8.56281 7.08003 8.13587 7.30994 7.76453V7.76453ZM6.58494 7.03953C6.11716 7.69923 5.8979 8.50318 5.966 9.30903C6.03409 10.1149 6.38514 10.8706 6.95699 11.4425C7.52884 12.0143 8.2846 12.3654 9.09045 12.4335C9.89629 12.5016 10.7002 12.2823 11.3599 11.8145L12.1599 12.6145C11.2338 13.0104 10.2371 13.2145 9.22994 13.2145C6.41494 13.2145 3.85494 11.6445 2.32994 8.99953C3.06179 7.70364 4.1158 6.61863 5.38994 5.84953L6.58494 7.03953Z" fill="#4F4F4F"/>
</g>
<defs>
<clipPath id="clip0_44_2942">
<rect width="18" height="18" fill="white"/>
</clipPath>
</defs>
</svg>
