<svg width="14" height="14" viewBox="0 0 14 14" fill="none" xmlns="http://www.w3.org/2000/svg">
<path d="M2.33333 7.58329C2.6555 7.58329 2.91667 7.32213 2.91667 6.99996C2.91667 6.67779 2.6555 6.41663 2.33333 6.41663C2.01117 6.41663 1.75 6.67779 1.75 6.99996C1.75 7.32213 2.01117 7.58329 2.33333 7.58329Z" stroke="#AAAAAA" stroke-width="2"/>
<path d="M6.99999 7.58329C7.32216 7.58329 7.58332 7.32213 7.58332 6.99996C7.58332 6.67779 7.32216 6.41663 6.99999 6.41663C6.67782 6.41663 6.41666 6.67779 6.41666 6.99996C6.41666 7.32213 6.67782 7.58329 6.99999 7.58329Z" stroke="#AAAAAA" stroke-width="2"/>
<path d="M11.6667 7.58329C11.9888 7.58329 12.25 7.32213 12.25 6.99996C12.25 6.67779 11.9888 6.41663 11.6667 6.41663C11.3445 6.41663 11.0833 6.67779 11.0833 6.99996C11.0833 7.32213 11.3445 7.58329 11.6667 7.58329Z" stroke="#AAAAAA" stroke-width="2"/>
</svg>
