<svg width="28" height="28" viewBox="0 0 28 28" fill="none" xmlns="http://www.w3.org/2000/svg">
<path d="M16.0183 24.4997C15.8135 24.8536 15.5191 25.1474 15.1649 25.3516C14.8106 25.5559 14.4089 25.6634 14 25.6634C13.5911 25.6634 13.1894 25.5559 12.8351 25.3516C12.4809 25.1474 12.1865 24.8536 11.9817 24.4997M21.1563 12.833C21.8342 19.1038 24.5 20.9997 24.5 20.9997H3.5C3.5 20.9997 7 18.5112 7 9.79967C7 7.81984 7.73733 5.92051 9.04983 4.52051C10.3635 3.12051 12.145 2.33301 14 2.33301C14.3932 2.33301 14.784 2.36801 15.1667 2.43801L21.1563 12.833ZM22.1667 9.33301C23.0949 9.33301 23.9852 8.96426 24.6415 8.30788C25.2979 7.6515 25.6667 6.76127 25.6667 5.83301C25.6667 4.90475 25.2979 4.01451 24.6415 3.35813C23.9852 2.70176 23.0949 2.33301 22.1667 2.33301C21.2384 2.33301 20.3482 2.70176 19.6918 3.35813C19.0354 4.01451 18.6667 4.90475 18.6667 5.83301C18.6667 6.76127 19.0354 7.6515 19.6918 8.30788C20.3482 8.96426 21.2384 9.33301 22.1667 9.33301Z" stroke="#282828" stroke-width="1.5" stroke-linecap="round" stroke-linejoin="round"/>
<ellipse cx="6.3" cy="6.3" rx="6.3" ry="6.3" transform="matrix(-1 0 0 1 26.5996 0)" fill="#2D88D4"/>
</svg>
